<?xml version="1.0" encoding="utf-8"?>
<svg version="1.0" id="katman_1" xmlns="http://www.w3.org/2000/svg" xmlns:xlink="http://www.w3.org/1999/xlink" x="0px" y="0px"
	 viewBox="0 0 841.89 595.28" style="enable-background:new 0 0 841.89 595.28;" xml:space="preserve"
	 width="1683.78px" height="1190.56px">
<style type="text/css">
	.st0{fill:#666666;}
</style>
<g>
	<g>
		<path class="st0" d="M447.43,333.51c-3.09,2.02-4.85,5.55-4.62,9.24c-0.26,2.73,0.74,5.43,2.71,7.33
			c2.28,1.82,5.16,2.71,8.06,2.49c4.58,0.23,9.07-1.32,12.54-4.33c3.27-3.21,4.98-7.67,4.69-12.24v-5.87h-8.65
			C457.04,329.95,451.96,331.12,447.43,333.51z"/>
		<path class="st0" d="M389.29,179.47c-4.09-0.14-8.04,1.42-10.92,4.33c-2.96,3.55-4.64,7.99-4.77,12.61h30.57
			c0.13-4.47-1.35-8.85-4.18-12.32C397.29,181.03,393.37,179.34,389.29,179.47z"/>
		<path class="st0" d="M421.25,59.45c-147.81,0-267.61,91.94-267.61,205.29c0,105.5,103.82,192.46,237.4,203.97l29.33,66.72
			l30.57-66.72c133.95-11.44,237.91-98.39,237.91-203.97C688.86,151.39,569.06,59.45,421.25,59.45z M293.9,342.31
			c4.99,5.79,12.39,8.91,20.02,8.43c3.69,0.02,7.38-0.35,11-1.1c3.52-0.73,7.18-1.69,11-2.86v12.46
			c-7.61,2.75-15.66,4.09-23.75,3.96c-11.26,0.69-22.25-3.66-29.99-11.88c-7.55-9.61-11.29-21.67-10.48-33.87
			c-0.19-8.37,1.54-16.67,5.06-24.27c3.16-6.68,8.28-12.26,14.66-15.98c6.9-3.83,14.69-5.75,22.58-5.57
			c8.74-0.08,17.37,1.87,25.22,5.72l-5.21,12.1c-3.09-1.45-6.28-2.7-9.53-3.74c-3.41-1.08-6.98-1.63-10.56-1.61
			c-7.61-0.34-14.93,2.95-19.72,8.87c-5.22,7.09-7.81,15.77-7.33,24.56C286.28,326.35,288.76,335.11,293.9,342.31z M348.67,237.17
			H296.4v-89.01h14.66v76.54h37.61V237.17z M412.82,361.81h-14.66v-41.35c0.5-4.09-0.4-8.23-2.57-11.73
			c-2.55-2.75-6.24-4.16-9.97-3.81c-5.02-0.43-9.95,1.56-13.27,5.35c-3.31,5.4-4.8,11.72-4.25,18.04v33.43h-14.66v-94.58h14.66
			v24.05c-0.02,4.14-0.26,8.28-0.73,12.39h0.88c1.97-3.16,4.79-5.7,8.14-7.33c3.67-1.9,7.74-2.9,11.88-2.93
			c16.33,0,24.49,8.21,24.49,24.63L412.82,361.81z M418.1,206.67h-44.94c-0.2,5.52,1.69,10.91,5.28,15.1
			c3.73,3.68,8.85,5.59,14.08,5.28c3.74,0.04,7.48-0.33,11.14-1.1c3.81-0.87,7.51-2.13,11.07-3.74v11.66
			c-3.38,1.62-6.95,2.8-10.63,3.52c-4.04,0.73-8.14,1.07-12.24,1.03c-9.11,0.52-18.02-2.8-24.56-9.16
			c-6.2-6.89-9.4-15.97-8.87-25.22c-0.54-9.37,2.38-18.6,8.21-25.95c5.71-6.4,14.01-9.88,22.58-9.46
			c7.85-0.38,15.49,2.57,21.04,8.14c5.33,6.05,8.1,13.94,7.7,21.99L418.1,206.67z M569.57,272.66l-3.08,62.03h-10.7l-3.15-62.03
			H569.57z M426.46,174.34l9.9-4.91l4.84-14.66h8.8v14.66h18.92v10.85h-18.92v36.07c-0.16,2.69,0.76,5.33,2.57,7.33
			c1.85,1.71,4.3,2.61,6.82,2.49c3.56,0,7.09-0.54,10.48-1.61v10.78c-1.96,0.8-4,1.39-6.09,1.76c-2.56,0.48-5.16,0.73-7.77,0.73
			c-13.54,0-20.31-7.14-20.31-21.41v-36.66h-9.24V174.34z M485.11,361.88h-10.26l-2.86-9.16h-0.51c-2.61,3.48-6,6.29-9.9,8.21
			c-4.03,1.61-8.35,2.36-12.68,2.2c-5.66,0.34-11.23-1.59-15.47-5.35c-3.91-4.05-5.93-9.56-5.57-15.18
			c-0.34-6.23,2.61-12.18,7.77-15.69c7.16-4.07,15.31-6.07,23.53-5.79h11.66v-3.59c0.28-3.49-0.8-6.96-3.01-9.68
			c-2.51-2.33-5.89-3.5-9.31-3.23c-3.36,0-6.7,0.52-9.9,1.54c-3.13,0.99-6.19,2.19-9.16,3.59l-4.62-10.26
			c3.81-2.08,7.88-3.66,12.1-4.69c4.04-0.95,8.17-1.44,12.32-1.47c6.93-0.5,13.82,1.47,19.43,5.57c4.69,4.6,7.09,11.05,6.53,17.6
			L485.11,361.88z M485.11,178.59h-10.48c2.79-11.73,4.81-21.9,6.09-30.5h14.08l0.88,1.32c-2.7,10.05-6.28,19.84-10.7,29.25
			L485.11,178.59z M540.76,360.64c-1.96,0.8-4,1.39-6.09,1.76c-2.56,0.48-5.16,0.73-7.77,0.73c-13.54,0-20.31-7.14-20.31-21.41
			v-36.66h-9.38v-6.31l9.82-4.69l4.91-14.66h8.8v14.66h19.21v10.85h-19.21v36.07c-0.16,2.69,0.76,5.33,2.57,7.33
			c1.85,1.71,4.3,2.61,6.82,2.49c3.56,0,7.09-0.54,10.48-1.61L540.76,360.64z M545.6,233.06c-6.14,3.89-13.35,5.74-20.6,5.28
			c-7.43,0.3-14.83-1.1-21.63-4.11v-12.24c6.85,3.4,14.35,5.27,21.99,5.5c8.8,0,13.2-2.66,13.2-7.99c0.05-1.55-0.47-3.06-1.47-4.25
			c-1.4-1.45-3.03-2.64-4.84-3.52c-3.02-1.56-6.13-2.93-9.31-4.11c-5.8-1.82-11.14-4.84-15.69-8.87c-2.81-3.21-4.28-7.39-4.11-11.66
			c-0.11-5.46,2.68-10.56,7.33-13.42c5.7-3.47,12.32-5.13,18.99-4.77c7.74-0.02,15.39,1.63,22.43,4.84l-4.99,10.34
			c-5.77-2.64-11.99-4.16-18.33-4.47c-7.58,0-11.34,2.15-11.29,6.45c0.03,2.16,1.13,4.16,2.93,5.35c4.07,2.47,8.4,4.49,12.9,6.01
			c4.25,1.51,8.31,3.5,12.1,5.94c2.32,1.58,4.23,3.69,5.57,6.16c1.28,2.6,1.91,5.46,1.83,8.36c0.35,5.97-2.35,11.72-7.19,15.25
			L545.6,233.06z M567.59,361.08c-1.74,1.74-4.14,2.65-6.6,2.49c-2.49,0.16-4.93-0.72-6.75-2.42c-1.72-1.9-2.59-4.41-2.42-6.97
			c-0.32-4.56,3.13-8.52,7.69-8.84c0.51-0.04,1.03-0.02,1.54,0.04c2.47-0.18,4.89,0.7,6.67,2.42c1.63,1.86,2.48,4.28,2.35,6.75
			c0.05,2.42-0.81,4.78-2.42,6.6L567.59,361.08z"/>
	</g>
</g>
</svg>
